<svg width="23" height="23" viewBox="0 0 23 23" fill="none" xmlns="http://www.w3.org/2000/svg">
<g clip-path="url(#clip0_151_187)">
<path d="M20.4207 4.57253V14.4542" stroke="white" stroke-width="2" stroke-miterlimit="10"/>
<path d="M10.3286 2.88931H3.66515C2.82331 2.88931 2.14087 3.56089 2.14087 4.38931V11.6794C2.14087 12.5078 2.82331 13.1794 3.66515 13.1794H10.3286C11.1704 13.1794 11.8528 12.5078 11.8528 11.6794V4.38931C11.8528 3.56089 11.1704 2.88931 10.3286 2.88931Z" stroke="white" stroke-miterlimit="10"/>
<path d="M16.0885 6.40076H13.4433C13.2848 6.40076 13.1562 6.52721 13.1562 6.6832C13.1562 6.83919 13.2848 6.96564 13.4433 6.96564H16.0885C16.247 6.96564 16.3755 6.83919 16.3755 6.6832C16.3755 6.52721 16.247 6.40076 16.0885 6.40076Z" fill="white"/>
<path d="M16.0885 7.54962H13.4433C13.2848 7.54962 13.1562 7.67608 13.1562 7.83206C13.1562 7.98805 13.2848 8.11451 13.4433 8.11451H16.0885C16.247 8.11451 16.3755 7.98805 16.3755 7.83206C16.3755 7.67608 16.247 7.54962 16.0885 7.54962Z" fill="white"/>
<path d="M16.0924 8.60687H13.4472C13.2887 8.60687 13.1602 8.73333 13.1602 8.88932C13.1602 9.0453 13.2887 9.17176 13.4472 9.17176H16.0924C16.2509 9.17176 16.3794 9.0453 16.3794 8.88932C16.3794 8.73333 16.2509 8.60687 16.0924 8.60687Z" fill="white"/>
<path d="M16.0885 9.75954H13.4433C13.2848 9.75954 13.1562 9.88599 13.1562 10.042C13.1562 10.198 13.2848 10.3244 13.4433 10.3244H16.0885C16.247 10.3244 16.3755 10.198 16.3755 10.042C16.3755 9.88599 16.247 9.75954 16.0885 9.75954Z" fill="white"/>
<path d="M16.0924 10.8397H13.4472C13.2887 10.8397 13.1602 10.9661 13.1602 11.1221C13.1602 11.2781 13.2887 11.4046 13.4472 11.4046H16.0924C16.2509 11.4046 16.3794 11.2781 16.3794 11.1221C16.3794 10.9661 16.2509 10.8397 16.0924 10.8397Z" fill="white"/>
<path d="M16.0924 11.9809H13.4472C13.2887 11.9809 13.1602 12.1074 13.1602 12.2634C13.1602 12.4193 13.2887 12.5458 13.4472 12.5458H16.0924C16.2509 12.5458 16.3794 12.4193 16.3794 12.2634C16.3794 12.1074 16.2509 11.9809 16.0924 11.9809Z" fill="white"/>
<path d="M15.9914 14.8779H2.88955C2.73104 14.8779 2.60254 15.0043 2.60254 15.1603C2.60254 15.3163 2.73104 15.4428 2.88955 15.4428H15.9914C16.1499 15.4428 16.2784 15.3163 16.2784 15.1603C16.2784 15.0043 16.1499 14.8779 15.9914 14.8779Z" fill="white"/>
<path d="M15.9914 16.5191H2.88955C2.73104 16.5191 2.60254 16.6455 2.60254 16.8015C2.60254 16.9575 2.73104 17.084 2.88955 17.084H15.9914C16.1499 17.084 16.2784 16.9575 16.2784 16.8015C16.2784 16.6455 16.1499 16.5191 15.9914 16.5191Z" fill="white"/>
<path d="M15.9914 18.1565H2.88955C2.73104 18.1565 2.60254 18.2829 2.60254 18.4389C2.60254 18.5949 2.73104 18.7214 2.88955 18.7214H15.9914C16.1499 18.7214 16.2784 18.5949 16.2784 18.4389C16.2784 18.2829 16.1499 18.1565 15.9914 18.1565Z" fill="white"/>
<path d="M15.9914 19.7977H2.88955C2.73104 19.7977 2.60254 19.9242 2.60254 20.0802C2.60254 20.2361 2.73104 20.3626 2.88955 20.3626H15.9914C16.1499 20.3626 16.2784 20.2361 16.2784 20.0802C16.2784 19.9242 16.1499 19.7977 15.9914 19.7977Z" fill="white"/>
<path d="M0.321841 1.35114C0.296614 1.09164 0.368641 0.832013 0.524365 0.621127C0.68009 0.410241 0.908773 0.262639 1.16737 0.2061H16.9997C17.3119 0.216018 17.6096 0.337904 17.8368 0.548804C18.0639 0.759703 18.2049 1.04506 18.2331 1.35114V20.2366C18.2153 20.8814 18.4503 21.5082 18.8893 21.9871C19.3283 22.466 19.9378 22.7604 20.5913 22.8092H2.98255C2.35051 22.8109 1.73954 22.5856 1.26434 22.1756C0.949326 21.9333 0.69077 21.6273 0.506106 21.2784C0.321441 20.9294 0.214962 20.5456 0.193848 20.1527L0.321841 1.35114Z" stroke="white" stroke-miterlimit="10"/>
<path d="M18.2332 2.48091L19.8156 2.51145C20.002 2.59326 20.159 2.7284 20.2662 2.89928C20.3735 3.07015 20.4259 3.26883 20.4168 3.46946V4.44656H22.2281C22.2281 4.44656 22.8332 4.61832 22.8021 5.54961L22.7168 20.1374C22.7168 20.1374 22.7439 22.5153 20.5913 22.8092" stroke="white" stroke-miterlimit="10"/>
</g>
<defs>
<clipPath id="clip0_151_187">
<rect width="23" height="23" fill="white"/>
</clipPath>
</defs>
</svg>
